<?xml version="1.0" encoding="UTF-8"?><svg xmlns="http://www.w3.org/2000/svg" xmlns:xlink="http://www.w3.org/1999/xlink" fill-opacity="1" color-rendering="auto" color-interpolation="auto" text-rendering="auto" stroke="black" stroke-linecap="square" width="659" stroke-miterlimit="10" shape-rendering="auto" stroke-opacity="1" fill="black" stroke-dasharray="none" font-weight="normal" stroke-width="1" height="260" font-family="'Dialog'" font-style="normal" stroke-linejoin="miter" font-size="12px" stroke-dashoffset="0" image-rendering="auto">
  <!--Generated by ySVG 2.6-->
  <defs id="genericDefs"/>
  <g>
    <defs id="defs1">
      <clipPath clipPathUnits="userSpaceOnUse" id="clipPath1">
        <path d="M0 0 L659 0 L659 260 L0 260 L0 0 Z"/>
      </clipPath>
      <clipPath clipPathUnits="userSpaceOnUse" id="clipPath2">
        <path d="M285 185 L944 185 L944 445 L285 445 L285 185 Z"/>
      </clipPath>
    </defs>
    <g fill="white" text-rendering="geometricPrecision" shape-rendering="geometricPrecision" transform="translate(-285,-185)" stroke="white">
      <rect x="285" width="659" height="260" y="185" clip-path="url(#clipPath2)" stroke="none"/>
    </g>
    <g text-rendering="geometricPrecision" stroke-miterlimit="1.45" shape-rendering="geometricPrecision" transform="matrix(1,0,0,1,-285,-185)" stroke-linecap="butt">
      <rect fill="none" x="300" width="100" height="230" y="200" clip-path="url(#clipPath2)"/>
      <text x="323.3662" xml:space="preserve" y="319.6553" clip-path="url(#clipPath2)" font-family="'Open Sans'" stroke="none">container</text>
      <rect fill="none" x="430" width="111.088" height="30" y="200" clip-path="url(#clipPath2)"/>
      <text x="436" xml:space="preserve" y="219.6553" clip-path="url(#clipPath2)" font-family="'Open Sans'" stroke="none">+ speech_data</text>
      <rect fill="none" x="430" width="111.088" height="30" y="250" clip-path="url(#clipPath2)"/>
      <text x="436" xml:space="preserve" y="269.6553" clip-path="url(#clipPath2)" font-family="'Open Sans'" stroke="none">+ speaker_data</text>
      <rect fill="none" x="430" width="111.088" height="30" y="300" clip-path="url(#clipPath2)"/>
      <text x="436" xml:space="preserve" y="319.6553" clip-path="url(#clipPath2)" font-family="'Open Sans'" stroke="none">+ language_data</text>
      <rect fill="none" x="430" width="111.088" height="30" y="350" clip-path="url(#clipPath2)"/>
      <text x="436" xml:space="preserve" y="369.6553" clip-path="url(#clipPath2)" font-family="'Open Sans'" stroke="none">+ file_data</text>
      <rect fill="none" x="430" width="111.088" height="30" y="400" clip-path="url(#clipPath2)"/>
      <text x="436" xml:space="preserve" y="419.6553" clip-path="url(#clipPath2)" font-family="'Open Sans'" stroke="none">- _eaf_data</text>
      <rect x="628.8864" y="200" clip-path="url(#clipPath2)" fill="none" width="300" stroke-dasharray="6,2" height="30" stroke="rgb(153,153,153)"/>
      <text x="634.8864" y="219.6553" clip-path="url(#clipPath2)" fill="rgb(153,153,153)" font-family="'Open Sans'" stroke="none" xml:space="preserve">Information related to the whole speech</text>
      <rect x="628.8864" y="250" clip-path="url(#clipPath2)" fill="none" width="300" stroke-dasharray="6,2" height="30" stroke="rgb(153,153,153)"/>
      <text x="634.8864" y="269.6553" clip-path="url(#clipPath2)" fill="rgb(153,153,153)" font-family="'Open Sans'" stroke="none" xml:space="preserve">Information related to the original speaker</text>
      <rect x="628.8864" y="300" clip-path="url(#clipPath2)" fill="none" width="300" stroke-dasharray="6,2" height="30" stroke="rgb(153,153,153)"/>
      <text x="634.8864" y="319.6553" clip-path="url(#clipPath2)" fill="rgb(153,153,153)" font-family="'Open Sans'" stroke="none" xml:space="preserve">Information related to each audio channel content</text>
      <rect x="628.8864" y="350" clip-path="url(#clipPath2)" fill="none" width="300" stroke-dasharray="6,2" height="30" stroke="rgb(153,153,153)"/>
      <text x="634.8864" y="369.6553" clip-path="url(#clipPath2)" fill="rgb(153,153,153)" font-family="'Open Sans'" stroke="none" xml:space="preserve">Information related to the associated corpus files</text>
      <rect x="628.8864" y="400" clip-path="url(#clipPath2)" fill="none" width="300" stroke-dasharray="6,2" height="30" stroke="rgb(153,153,153)"/>
      <text x="634.8864" y="419.6553" clip-path="url(#clipPath2)" fill="rgb(153,153,153)" font-family="'Open Sans'" stroke="none" xml:space="preserve">Information required to build an ELAN file</text>
      <rect fill="none" x="541.088" width="46" height="14" y="287.0066" clip-path="url(#clipPath2)"/>
      <text x="549.9718" font-size="10px" y="297.886" clip-path="url(#clipPath2)" font-family="'Open Sans'" stroke="none" xml:space="preserve">['eng']</text>
      <rect fill="none" x="541.088" width="46" height="14" y="301.0066" clip-path="url(#clipPath2)"/>
      <text x="550.9996" font-size="10px" y="311.886" clip-path="url(#clipPath2)" font-family="'Open Sans'" stroke="none" xml:space="preserve">['ger']</text>
      <rect fill="none" x="541.088" width="46" height="14" y="315.0066" clip-path="url(#clipPath2)"/>
      <text x="552.069" font-size="10px" y="325.886" clip-path="url(#clipPath2)" font-family="'Open Sans'" stroke="none" xml:space="preserve">['fra']</text>
      <rect fill="none" x="541.088" width="46" height="14" y="329.0066" clip-path="url(#clipPath2)"/>
      <text x="554.5934" font-size="10px" y="339.886" clip-path="url(#clipPath2)" font-family="'Open Sans'" stroke="none" xml:space="preserve">['...']</text>
      <path fill="none" d="M407.0291 215 L430 215" clip-path="url(#clipPath2)"/>
      <path d="M400.0291 215 L407.0291 210 L414.0291 215 L407.0291 220 Z" clip-path="url(#clipPath2)" stroke="none"/>
      <path fill="none" d="M407.0291 265 L430 265" clip-path="url(#clipPath2)"/>
      <path d="M400.0291 265 L407.0291 260 L414.0291 265 L407.0291 270 Z" clip-path="url(#clipPath2)" stroke="none"/>
      <path fill="none" d="M407 315 L430 315" clip-path="url(#clipPath2)"/>
      <path d="M400 315 L407 310 L414 315 L407 320 Z" clip-path="url(#clipPath2)" stroke="none"/>
      <path fill="none" d="M407.0291 365 L430 365" clip-path="url(#clipPath2)"/>
      <path d="M400.0291 365 L407.0291 360 L414.0291 365 L407.0291 370 Z" clip-path="url(#clipPath2)" stroke="none"/>
      <path fill="none" d="M407.0291 415 L430 415" clip-path="url(#clipPath2)"/>
      <path d="M400.0291 415 L407.0291 410 L414.0291 415 L407.0291 420 Z" clip-path="url(#clipPath2)" stroke="none"/>
      <path fill="none" d="M541.088 215 L628.8864 215" clip-path="url(#clipPath2)" stroke="rgb(153,153,153)"/>
      <path fill="none" d="M541.088 265 L628.8864 265" clip-path="url(#clipPath2)" stroke="rgb(153,153,153)"/>
      <path fill="none" d="M541.088 365 L628.8864 365" clip-path="url(#clipPath2)" stroke="rgb(153,153,153)"/>
      <path fill="none" d="M541.088 415 L628.8864 415" clip-path="url(#clipPath2)" stroke="rgb(153,153,153)"/>
      <path fill="none" d="M587.088 296.2545 L628.8864 300.3397" clip-path="url(#clipPath2)" stroke="rgb(153,153,153)"/>
      <path fill="none" d="M587.088 308.7555 L628.8864 310.1163" clip-path="url(#clipPath2)" stroke="rgb(153,153,153)"/>
      <path fill="none" d="M587.088 321.2564 L628.8864 319.8929" clip-path="url(#clipPath2)" stroke="rgb(153,153,153)"/>
      <path fill="none" d="M587.088 333.7573 L628.8864 329.6696" clip-path="url(#clipPath2)" stroke="rgb(153,153,153)"/>
    </g>
  </g>
</svg>
